<svg id="Flat" height="512" viewBox="0 0 512 512" width="512" xmlns="http://www.w3.org/2000/svg"><path d="m456 448h-432a8 8 0 0 1 0-16h432a8 8 0 0 1 0 16z" fill="#dadcde"/><path d="m424 128h48a16 16 0 0 1 16 16 16 16 0 0 1 -16 16h-48a0 0 0 0 1 0 0v-32a0 0 0 0 1 0 0z" fill="#4f5659"/><path d="m347.713 432a31.741 31.741 0 0 1 -25.213-12.331q-.141-.181-.271-.369l-48.809-70.755a8 8 0 0 1 13.17-9.086l48.666 70.548a15.949 15.949 0 0 0 28.184-7.277l12.654-83.92a8 8 0 0 1 15.822 2.384l-12.665 83.991c-.007.04-.013.081-.02.122a31.848 31.848 0 0 1 -31.518 26.693z" fill="#7e8589"/><path d="m354.5 173.309c-2.435-20.987-21-37.309-43.547-37.309a45.814 45.814 0 0 0 -7.8.677c-3.179-20.196-21.365-35.677-43.327-35.677a45.93 45.93 0 0 0 -5.661.361 44.775 44.775 0 0 0 -76.33 0 45.93 45.93 0 0 0 -5.661-.361c-21.962 0-40.148 15.481-43.331 35.677a45.814 45.814 0 0 0 -7.8-.677c-22.543 0-41.112 16.322-43.543 37.309-17.169 5.691-29.5 21.306-29.5 39.691 0 23.2 19.622 42 43.826 42a45.5 45.5 0 0 0 13.818-2.143c20.649 30.378 62.314 51.143 110.356 51.143s89.707-20.765 110.356-51.143a45.5 45.5 0 0 0 13.818 2.143c24.2 0 43.826-18.8 43.826-42 0-18.385-12.331-34-29.5-39.691z" fill="#95573a"/><path d="m392 336-264 48-88-128h368z" fill="#dadcde"/><circle cx="128" cy="384" fill="#4f5659" r="48"/><circle cx="128" cy="384" fill="#b6b9ba" r="16"/><rect fill="#b6b9ba" height="32" rx="16" width="416" x="24" y="224"/><path d="m424 224h-16l8-96h16z" fill="#7e8589"/></svg>