<svg id="icons" enable-background="new 0 0 64 64" height="512" viewBox="0 0 64 64" width="512" xmlns="http://www.w3.org/2000/svg"><g><g><path d="m53 1-1 4h-40l-1-4z" fill="#8cc152"/></g><g><path d="m32 28.01-7.43 8.67c-3.37-2.35-5.57-6.25-5.57-10.67 0-7.18 5.82-13.01 13-13.01s13 5.83 13 13.01c0 4.42-2.2 8.32-5.57 10.67z" fill="#5d9cec"/></g><g><path d="m52 5s3 9 3 27-3 27-3 27h-40s-3-9-3-27 3-27 3-27zm-7 21.01c0-7.18-5.82-13.01-13-13.01s-13 5.83-13 13.01c0 4.42 2.2 8.32 5.57 10.67 2.109 1.471 4.67 2.33 7.43 2.33s5.32-.859 7.43-2.33c3.37-2.35 5.57-6.25 5.57-10.67z" fill="#a0d468"/></g><g><path d="m52 59 1 4h-42l1-4z" fill="#8cc152"/></g><g><path d="m44.996 45.003h-25.998c-.553 0-1-.447-1-1s.447-1 1-1h25.998c.553 0 1 .447 1 1s-.447 1-1 1z" fill="#8cc152"/></g><g><path d="m44.996 48.003h-25.998c-.553 0-1-.447-1-1s.447-1 1-1h25.998c.553 0 1 .447 1 1s-.447 1-1 1z" fill="#8cc152"/></g><g><path d="m36.996 51.003h-9.998c-.553 0-1-.447-1-1s.447-1 1-1h9.998c.553 0 1 .447 1 1s-.447 1-1 1z" fill="#8cc152"/></g><g><path d="m32.002 27.01c-.553 0-1-.447-1-1 0-1.103-.897-2-2-2-.553 0-1-.447-1-1s.447-1 1-1c2.206 0 4 1.794 4 4 0 .553-.447 1-1 1z" fill="#8cc152"/></g><g><path d="m32.002 34.014c-.553 0-1-.447-1-1v-10.005c0-.553.447-1 1-1s1 .447 1 1v10.005c0 .552-.447 1-1 1z" fill="#a0d468"/></g><g><path d="m32.002 24.009c-.553 0-1-.447-1-1 0-2.206 1.794-4 4-4 .553 0 1 .447 1 1s-.447 1-1 1c-1.103 0-2 .897-2 2 0 .553-.447 1-1 1z" fill="#a0d468"/></g><g><path d="m32 28.01 7.43 8.67c-2.109 1.471-4.67 2.33-7.43 2.33s-5.32-.859-7.43-2.33z" fill="#965353"/></g><g><g><path d="m29.022 37.008c-.553 0-1.005-.447-1.005-1s.442-1 .994-1h.011c.552 0 1 .447 1 1s-.448 1-1 1z" fill="#844747"/></g><g><path d="m32.022 34.009c-.553 0-1.005-.447-1.005-1s.442-1 .994-1h.011c.552 0 1 .447 1 1s-.448 1-1 1z" fill="#844747"/></g><g><path d="m35.022 37.008c-.553 0-1.005-.447-1.005-1s.442-1 .994-1h.011c.552 0 1 .447 1 1s-.448 1-1 1z" fill="#844747"/></g></g></g></svg>