<?xml version="1.0"?>
<svg xmlns="http://www.w3.org/2000/svg" viewBox="0 0 64 64" width="512" height="512"><g id="Epidemic"><circle cx="32" cy="33" r="29" style="fill:#57a4ff"/><path d="M61,33A29.007,29.007,0,0,1,18.18,58.5C28.04,55.18,39.52,48.69,47,36a50.987,50.987,0,0,0,6.84-22.07A28.817,28.817,0,0,1,61,33Z" style="fill:#2488ff"/><path d="M59.77,24.62a29.027,29.027,0,0,1-14.38,34.1L45,56l6-7-2-5-4,1-5-4,3.81-.63C44.48,41.35,45,42,45,42s.62-.78,1.37-1.91h.01L54,42V33l3,2Z" style="fill:#009698"/><path d="M45,30a4,4,0,0,1,4,4c0,1.82-1.47,4.36-2.62,6.09h-.01C45.62,41.22,45,42,45,42s-.52-.65-1.19-1.63C42.63,38.65,41,35.92,41,34A4,4,0,0,1,45,30Z" style="fill:#ff3051"/><path d="M36.34,4.33,29,8l5,5v5L24,22l-1.22,6.08A3.985,3.985,0,0,0,18,32c0,3,4,8,4,8a29.321,29.321,0,0,0,3.11-4.89L29,39l-5,6-6,5,5,8,4.74,3.69a28.928,28.928,0,0,1-17.29-9.28L11,48,9,42,6,38,3.08,35.08C3.02,34.39,3,33.7,3,33a28.8,28.8,0,0,1,.53-5.53L6,33l1-6,2-7,.72-.36c.18.23.28.36.28.36s.24-.3.6-.8L13,18l-2,7,8-3,3-7,.13-1.98C22.81,16.01,26,20,26,20s4-5,4-8a4,4,0,0,0-4-4,3.493,3.493,0,0,0-.65.06L25,7l-4.06-.81A28.859,28.859,0,0,1,32,4,28.242,28.242,0,0,1,36.34,4.33Z" style="fill:#00d7df"/><path d="M26,8a4,4,0,0,1,4,4c0,3-4,8-4,8s-3.19-3.99-3.87-6.98A4.751,4.751,0,0,1,22,12a3.991,3.991,0,0,1,3.35-3.94A3.493,3.493,0,0,1,26,8Z" style="fill:#ff3051"/><path d="M26,32a7.744,7.744,0,0,1-.89,3.11A29.321,29.321,0,0,1,22,40s-4-5-4-8a4,4,0,0,1,8,0Z" style="fill:#ff3051"/><path d="M13.7,10.5A3.756,3.756,0,0,1,14,12c0,2.26-2.28,5.67-3.4,7.2-.36.5-.6.8-.6.8s-.1-.13-.28-.36a30.91,30.91,0,0,1-1.85-2.73A11.09,11.09,0,0,1,6,12a4,4,0,0,1,7.7-1.5Z" style="fill:#ff3051"/><circle cx="51" cy="13" r="10" style="fill:#ff3051"/><path d="M61,13a10,10,0,0,1-18.78,4.78A9.9,9.9,0,0,0,47,19,10,10,0,0,0,57,9a9.9,9.9,0,0,0-1.22-4.78A9.984,9.984,0,0,1,61,13Z" style="fill:#b02109"/><circle cx="51" cy="13" r="4" style="fill:#cd2a00"/><path d="M59.17,20.34A10.989,10.989,0,0,0,43.25,5.2a29.62,29.62,0,0,0-6.76-1.86A30.226,30.226,0,0,0,32,3,29.807,29.807,0,0,0,20.56,5.26a30.138,30.138,0,0,0-6.57,3.76A4.983,4.983,0,0,0,5,12a10.887,10.887,0,0,0,1.7,4.89A29.465,29.465,0,0,0,2.55,27.26a.2.2,0,0,0-.01.08A29.512,29.512,0,0,0,2,33c0,.83.03,1.52.08,2.15A29.606,29.606,0,0,0,9.71,53.08a29.979,29.979,0,0,0,17.89,9.6A31.228,31.228,0,0,0,32,63,30,30,0,0,0,62,33a30.22,30.22,0,0,0-1.27-8.67A29.264,29.264,0,0,0,59.17,20.34ZM51,4a9,9,0,1,1-9,9A9.014,9.014,0,0,1,51,4ZM32,5c.24,0,.47.02.71.03L28.55,7.11a.964.964,0,0,0-.4.4,4.777,4.777,0,0,0-2.1-.5l-.1-.32a.983.983,0,0,0-.75-.67l-.39-.08A27.923,27.923,0,0,1,32,5ZM26,9a3.009,3.009,0,0,1,3,3c0,1.74-1.76,4.6-3,6.33-1.24-1.73-3-4.58-3-6.33A3.009,3.009,0,0,1,26,9Zm4.93,2.35L33,13.41v3.91l-5.34,2.14C28.91,17.71,31,14.42,31,12A4.616,4.616,0,0,0,30.93,11.35ZM15,12a4.726,4.726,0,0,0-.14-1.13,27.948,27.948,0,0,1,6.2-3.64l2.41.48A5,5,0,0,0,21,12a5.844,5.844,0,0,0,.12,1.07l-.11,1.69-2.76,6.45-5.74,2.16,1.45-5.1a1,1,0,0,0-.32-1.04.945.945,0,0,0-.42-.19A11.207,11.207,0,0,0,15,12ZM10,9a3.009,3.009,0,0,1,3,3c0,1.74-1.76,4.6-3,6.33C8.76,16.6,7,13.75,7,12A3.009,3.009,0,0,1,10,9ZM7.88,18.78c.13.2.26.39.38.56a.943.943,0,0,0-.22.39l-2,7c-.01.03-.02.07-.03.11l-.45,2.72-.99-2.21A27.634,27.634,0,0,1,7.88,18.78ZM9.74,49.99a27.436,27.436,0,0,1-5.3-12.14l.8.81L8.1,42.47,9.98,48.1Zm1.76,2.06.49-3.93a.958.958,0,0,0-.04-.44l-2-6a1.085,1.085,0,0,0-.15-.28l-3-4c-.03-.04-.06-.07-.09-.11L4.05,34.64C4.02,34.14,4,33.62,4,33s.03-1.25.07-1.87l1.02,2.28A1,1,0,0,0,6,34a.615.615,0,0,0,.13-.01,1.007,1.007,0,0,0,.86-.83l.99-5.94,1.79-6.27A.948.948,0,0,0,10,21a1,1,0,0,0,.78-.38c.08-.09.26-.32.5-.64l.13-.07-1.37,4.82a.963.963,0,0,0,.28,1A.977.977,0,0,0,11,26a1.03,1.03,0,0,0,.35-.06l8-3a1.026,1.026,0,0,0,.57-.55l2.54-5.92a29.761,29.761,0,0,0,2.65,4.01l-1.48.59a1.024,1.024,0,0,0-.61.73L21.98,27A5.01,5.01,0,0,0,17,32c0,3.26,3.79,8.08,4.22,8.62a.991.991,0,0,0,1.56,0,29.616,29.616,0,0,0,2.59-3.84l2.28,2.28-4.36,5.23-5.93,4.94a1.014,1.014,0,0,0-.21,1.3l5,8a.848.848,0,0,0,.24.26l1.15.89A28.028,28.028,0,0,1,11.5,52.05ZM25,32c0,1.74-1.76,4.6-3,6.33-1.24-1.73-3-4.58-3-6.33a3,3,0,0,1,6,0ZM44.3,58.13a28.045,28.045,0,0,1-16.17,2.6l-4.38-3.41-4.44-7.11,5.33-4.44a.8.8,0,0,0,.13-.13l5-6a1.011,1.011,0,0,0-.06-1.35l-3.41-3.4A7.806,7.806,0,0,0,27,32a5,5,0,0,0-3.06-4.61l.93-4.66,9.5-3.8A1,1,0,0,0,35,18V13a1.033,1.033,0,0,0-.29-.71L30.69,8.27l5.8-2.9a27.822,27.822,0,0,1,5.42,1.45A10.869,10.869,0,0,0,40,13,11.007,11.007,0,0,0,51,24a10.894,10.894,0,0,0,6.62-2.24,27.121,27.121,0,0,1,1.1,2.9l-2.33,8.73-1.84-1.22a.963.963,0,0,0-1.02-.05A.984.984,0,0,0,53,33v7.72l-5.03-1.26C49,37.75,50,35.67,50,34a5,5,0,0,0-10,0c0,1.73,1.07,3.9,2.13,5.63l-2.29.38a1.025,1.025,0,0,0-.81.74,1,1,0,0,0,.35,1.03l5,4a.987.987,0,0,0,.86.19l3.16-.79,1.45,3.63-5.61,6.54a.994.994,0,0,0-.23.79Zm.7-17.8c-1.24-1.73-3-4.58-3-6.33a3,3,0,0,1,6,0C48,35.74,46.24,38.6,45,40.33Zm1.17,16.8-.12-.82,5.71-6.66a1,1,0,0,0,.17-1.02l-2-5a1,1,0,0,0-1.17-.6l-3.52.88-2.86-2.29.96-.16c.44.6.77,1.03.88,1.16a.991.991,0,0,0,1.56,0c.13-.15.53-.67,1.04-1.39l6.94,1.74A.986.986,0,0,0,54,43a.99.99,0,0,0,1-1V34.87l1.45.96a.991.991,0,0,0,.9.11,1.026,1.026,0,0,0,.62-.68l1.72-6.45A29.322,29.322,0,0,1,60,33,27.893,27.893,0,0,1,46.17,57.13Z"/><path d="M46.1,14a4.961,4.961,0,0,0,.732,1.753l-1.49,1.49,1.414,1.414,1.49-1.49A4.969,4.969,0,0,0,50,17.9V20h2V17.9a4.969,4.969,0,0,0,1.753-.732l1.49,1.49,1.414-1.414-1.49-1.49A4.961,4.961,0,0,0,55.9,14H58V12H55.9a4.961,4.961,0,0,0-.732-1.753l1.49-1.49L55.243,7.343l-1.49,1.49A4.969,4.969,0,0,0,52,8.1V6H50V8.1a4.969,4.969,0,0,0-1.753.732l-1.49-1.49L45.343,8.757l1.49,1.49A4.961,4.961,0,0,0,46.1,12H44v2ZM51,10a3,3,0,1,1-3,3A3,3,0,0,1,51,10Z"/><rect x="50" y="12" width="2" height="2"/></g></svg>
