<svg id="Layer_1" enable-background="new 0 0 504.5 504.5" height="512" viewBox="0 0 504.5 504.5" width="512" xmlns="http://www.w3.org/2000/svg"><g><g><g><path d="m341.008 497h-176.833v-408.584c0-48.831 39.585-88.416 88.416-88.416 48.831 0 88.416 39.585 88.416 88.416v408.584z" fill="#50d9b2"/><path d="m287.1 497h-69.018v-462.491c0-19.059 15.45-34.509 34.509-34.509 19.059 0 34.509 15.45 34.509 34.509z" fill="#29ab86"/><path d="m340.695 232.231h17.649c17.623 0 31.91-14.286 31.91-31.91v-70.044c0-16.346 12.816-30.164 29.156-30.613 16.954-.465 30.844 13.14 30.844 29.988v85.35c0 42.652-34.576 77.228-77.228 77.228h-31.706z" fill="#29ab86"/><path d="m419.41 99.665c-5.136.141-9.923 1.604-14.075 4.051 8.922 5.199 14.918 14.868 14.918 25.938v85.349c0 42.652-34.576 77.228-77.228 77.228h30c42.652 0 77.228-34.576 77.228-77.228v-85.349c.001-16.849-13.889-30.454-30.843-29.989z" fill="#259978"/><path d="m164.175 342.354h-17.649c-17.623 0-31.91-14.286-31.91-31.91v-110.043c0-16.346-12.816-30.164-29.156-30.613-16.954-.465-30.844 13.14-30.844 29.988v125.35c0 42.652 34.576 77.228 77.228 77.228h31.706z" fill="#29ab86"/><g><path d="m114.616 310.444v-110.043c0-16.346-12.816-30.164-29.156-30.613-4.998-.137-9.725.956-13.913 2.987 10.149 4.981 17.069 15.617 17.069 27.625v110.044c0 17.623 14.286 31.91 31.91 31.91h17.649s-23.559-14.286-23.559-31.91z" fill="#259978"/></g></g><path d="m395.631 504.5h-286.08c-4.142 0-7.5-3.358-7.5-7.5s3.358-7.5 7.5-7.5h286.08c4.142 0 7.5 3.358 7.5 7.5s-3.358 7.5-7.5 7.5z" fill="#f0b964"/></g><g fill="#ff6381"><path d="m109.396 131.29c-4.142 0-7.5 3.358-7.5 7.5v6.132c0 6.88-4.035 12.82-9.854 15.625v-39.964c0-4.142-3.358-7.5-7.5-7.5s-7.5 3.358-7.5 7.5v39.964c-5.819-2.805-9.854-8.745-9.854-15.625v-6.132c0-4.142-3.358-7.5-7.5-7.5s-7.5 3.358-7.5 7.5v6.132c0 17.84 14.514 32.354 32.354 32.354s32.354-14.514 32.354-32.354v-6.132c0-4.142-3.358-7.5-7.5-7.5z"/><path d="m444.813 61.167c-4.142 0-7.5 3.358-7.5 7.5v6.133c0 6.88-4.035 12.82-9.854 15.625v-39.965c0-4.142-3.358-7.5-7.5-7.5s-7.5 3.358-7.5 7.5v39.964c-5.819-2.805-9.854-8.745-9.854-15.625v-6.133c0-4.142-3.358-7.5-7.5-7.5s-7.5 3.358-7.5 7.5v6.134c0 17.84 14.514 32.354 32.354 32.354s32.354-14.514 32.354-32.354v-6.133c0-4.142-3.358-7.5-7.5-7.5z"/></g></g></svg>