<svg id="Capa_1" enable-background="new 0 0 512 512" height="512" viewBox="0 0 512 512" width="512" xmlns="http://www.w3.org/2000/svg"><g><g><path clip-rule="evenodd" d="m179.227 98.127c-13.039-.652-27.07-.312-41.894.567 38.776 33.051 29.167 67.52 30.499 94.704.907 17.943 10.573 32.513 24.008 41.583 22.875 15.42 46.855 12.472 64.145-.34-19.161-14.201-30.046-40.478-21.939-67.18 5.215-17.149 12.614-30.302 21.939-40.336-18.566-19.956-44.785-27.439-76.758-28.998z" fill="#ff7b79" fill-rule="evenodd"/></g><g><path clip-rule="evenodd" d="m170.383 283.282c-28.118 4.45-32.455 4.195-63.918-2.041 12.84 22.847 27.183 41.81 43.113 54.056h106.408c-7.2-9.411-18.481-25.171-25.709-34.582-11.991-15.59-33.59-21.599-59.894-17.433z" fill="#d5ea7a" fill-rule="evenodd"/></g><g><path clip-rule="evenodd" d="m341.616 283.282c-26.304-4.167-47.903 1.842-59.893 17.433-7.228 9.411-18.509 25.171-25.737 34.582h106.436c15.902-12.245 30.273-31.209 43.113-54.056-31.492 6.237-35.8 6.492-63.919 2.041z" fill="#d5ea7a" fill-rule="evenodd"/></g><g><path clip-rule="evenodd" d="m255.986 335.297h-106.408-18.906c-11.877 0-21.627 9.723-21.627 21.628 0 11.877 9.751 21.628 21.627 21.628h6.519 236.228 6.519c11.905 0 21.627-9.751 21.627-21.628 0-11.905-9.722-21.628-21.627-21.628h-17.517z" fill="#ffe6b4" fill-rule="evenodd"/></g><g><path clip-rule="evenodd" d="m373.419 378.553h-236.228l27.693 123.447h180.842z" fill="#ffcd69" fill-rule="evenodd"/></g><g><path clip-rule="evenodd" d="m339.349 54.956c-18.453-2.466-35.46-1.049-50.483 3.685-12.472 3.912-23.555 10.148-32.88 18.368 10.006 8.816 17.942 19.899 23.441 32.853 15.165-7.398 33.079-10.743 53.346-11.735 4.591-12.841 6.944-27.326 6.576-43.171z" fill="#ff7b79" fill-rule="evenodd"/></g><g><path clip-rule="evenodd" d="m279.427 109.862c-8.787 4.309-16.61 9.949-23.441 17.263-9.326 10.034-16.724 23.187-21.939 40.336-8.107 26.702 2.778 52.979 21.939 67.18 17.291 12.812 41.299 15.76 64.145.34 13.436-9.071 23.13-23.641 24.008-41.583 1.361-27.184-8.248-61.652 30.528-94.704-14.853-.879-28.855-1.219-41.894-.567-20.267.992-38.181 4.337-53.346 11.735z" fill="#ffbdbc" fill-rule="evenodd"/></g><g><path clip-rule="evenodd" d="m223.105 58.641c-14.995-4.734-32.03-6.151-50.483-3.685-.34 15.845 1.984 30.33 6.604 43.171 31.973 1.559 58.193 9.042 76.759 28.998 6.831-7.313 14.654-12.954 23.441-17.263-5.499-12.954-13.436-24.037-23.441-32.853-9.297-8.22-20.38-14.456-32.88-18.368z" fill="#ffbdbc" fill-rule="evenodd"/></g><g><path clip-rule="evenodd" d="m255.986 10c-20.068 13.039-31.151 32.966-32.88 48.642 12.5 3.912 23.583 10.148 32.88 18.368 9.326-8.22 20.408-14.456 32.88-18.368-1.729-15.676-12.784-35.603-32.88-48.642z" fill="#ff7b79" fill-rule="evenodd"/></g><g><path d="m413.632 275.374c-2.291-3.16-6.212-4.696-10.04-3.941-30.862 6.112-33.685 6.205-60.411 1.974-30.503-4.833-55.147 2.7-69.389 21.219-2.29 2.981-4.99 6.603-7.807 10.415v-53.652c7.02 2.634 14.354 3.961 21.752 3.961 12.932 0 26.053-4.024 37.988-12.079 17.077-11.528 27.429-29.528 28.4-49.371.267-5.328.147-10.656.02-16.298-.525-23.286-1.068-47.365 27.008-71.296 3.106-2.647 4.292-6.916 2.996-10.786s-4.814-6.563-8.888-6.807c-9.377-.559-19.183-.976-29.087-.954 2.373-10.47 3.439-21.529 3.171-33.033-.114-4.923-3.795-9.029-8.676-9.68-15.51-2.066-30.417-1.581-44.23 1.321-5.348-17.099-18.235-33.846-35.003-44.75-3.314-2.154-7.588-2.154-10.902 0-16.792 10.919-29.678 27.681-35 44.787-13.731-2.896-28.614-3.438-44.231-1.359-4.889.65-8.573 4.769-8.679 9.698-.248 11.556.825 22.619 3.194 33.049-9.613-.031-19.357.344-29.077.921-4.075.241-7.594 2.935-8.891 6.805s-.111 8.141 2.995 10.788c28.09 23.943 27.532 48.033 26.992 71.33-.131 5.626-.254 10.939.007 16.269 1.004 19.866 11.355 37.859 28.406 49.37 11.951 8.056 25.07 12.078 37.998 12.078 7.395 0 14.724-1.327 21.737-3.96v53.612c-2.808-3.801-5.497-7.408-7.782-10.384-14.237-18.512-38.879-26.047-69.383-21.213-26.481 4.19-29.869 4.08-60.411-1.974-3.83-.753-7.75.78-10.041 3.94-2.291 3.161-2.533 7.365-.621 10.769 8.798 15.656 17.969 28.903 27.409 39.647-14.818 2.618-26.113 15.579-26.113 31.137 0 16.938 13.385 30.807 30.134 31.59l25.949 115.673c1.024 4.566 5.078 7.812 9.757 7.812h180.842c4.68 0 8.733-3.245 9.757-7.812l25.949-115.673c16.748-.783 30.133-14.652 30.133-31.59 0-15.141-10.697-27.826-24.93-30.907 9.521-10.794 18.761-24.121 27.616-39.877 1.914-3.404 1.672-7.609-.618-10.769zm-123.982 31.438c9.565-12.438 27.462-17.286 50.404-13.652 20.869 3.303 29.626 4.13 45.249 1.883-8.638 12.721-17.472 22.843-26.398 30.255h-82.999c.335-.456.671-.913 1.005-1.367 4.519-6.146 9.192-12.502 12.739-17.119zm39.6-242.803c-.406 8.59-1.728 16.797-3.925 24.546-14.288 1.134-28.299 3.626-41.043 8.375-3.733-6.917-8.152-13.223-13.172-18.887 15.951-10.525 36.035-15.408 58.14-14.034zm-73.264-41.695c11.18 8.916 18.214 20.185 21.305 29.924-7.636 3.142-14.787 7.138-21.34 11.969-6.511-4.786-13.627-8.789-21.265-11.937 3.069-9.74 10.099-21.024 21.3-29.956zm10.329 83.425c-3.655 2.295-7.1 4.829-10.345 7.596-18.825-15.972-43.077-22.612-69.289-24.725-2.204-7.729-3.534-15.955-3.948-24.608 37.365-2.383 67.674 12.792 83.582 41.737zm-68.879 120.954c-11.956-8.071-18.923-20.075-19.616-33.784-.225-4.593-.11-9.557.012-14.812.479-20.683 1.054-45.494-17.942-70.285 34.959-.547 62.838 3.876 82.442 20.151-7.566 10.14-13.502 22.291-17.855 36.594-7.306 24.066-1.411 49.828 14.638 68.072-13.359 5.086-28.26 3.11-41.679-5.936zm46.177-56.32c8.445-27.75 23.009-44.911 45.833-54.006 14.639-5.833 32.563-8.582 57.47-8.582 1.695 0 3.423.013 5.185.038-18.973 24.771-18.416 49.562-17.95 70.229.119 5.268.231 10.244 0 14.857-.67 13.699-7.637 25.697-19.614 33.783-17.164 11.583-36.794 11.578-52.516-.019-.067-.051-.133-.104-.201-.153-14.338-10.696-25.492-32.148-18.207-56.147zm-71.666 122.787c22.938-3.636 40.837 1.215 50.398 13.646 3.635 4.733 8.429 11.259 13.066 17.568.225.307.452.615.678.923h-82.999c-8.916-7.394-17.749-17.514-26.395-30.252 15.614 2.246 24.375 1.418 45.252-1.885zm219.619 63.765c0 6.412-5.216 11.628-11.627 11.628h-6.335c-.007 0-.013 0-.02 0h-73.38c-5.523 0-10 4.478-10 10s4.477 10 10 10h60.724l-23.207 103.447h-164.831l-23.207-103.446h60.724c5.523 0 10-4.478 10-10s-4.477-10-10-10h-79.735c-6.303 0-11.627-5.325-11.627-11.628 0-6.412 5.216-11.628 11.627-11.628h125.282c.008 0 .016.001.025.001h.007s.005 0 .007 0c.008 0 .016-.001.025-.001h123.921c6.411-.001 11.627 5.215 11.627 11.627z"/><path d="m255.305 368.553c-5.523 0-10 4.478-10 10s4.477 10 10 10h.057c5.523 0 9.972-4.478 9.972-10s-4.506-10-10.029-10z"/></g></g></svg>