<svg id="Capa_1" enable-background="new 0 0 512 512" height="512" viewBox="0 0 512 512" width="512" xmlns="http://www.w3.org/2000/svg"><g><path d="m512 256c0 89.204-45.625 167.751-114.812 213.58-40.472 26.808-319.606-9.641-363.682-86.872-21.323-37.361-33.506-80.612-33.506-126.708 0-141.385 114.615-256 256-256s256 114.615 256 256z" fill="#0a3575"/><path d="m302 240h-92v-130h92z" fill="#c88a1d"/><path d="m206.354 24.803c8.855 11.125 14.146 25.212 14.146 40.536v179.661h-170l41.151-193.229c2.211-10.383 6.825-19.743 13.185-27.55-1.985-2.544-3.168-5.744-3.168-9.221 0-8.284 6.716-15 15-15h78.332c8.284 0 15 6.716 15 15 0 3.748-1.374 7.174-3.646 9.803zm213.995 26.968c-2.064-9.692-6.222-18.493-11.939-25.972 2.83-2.728 4.59-6.558 4.59-10.799 0-8.284-6.716-15-15-15h-78.333c-8.284 0-15 6.716-15 15 0 2.987.873 5.769 2.377 8.107-9.693 11.372-15.544 26.119-15.544 42.232v179.661h170z" fill="#b9801b"/><path d="m461.5 244.8h-119.5v-179.461c0-4.574.471-9.038 1.368-13.346 8.63-41.448 67.614-42.379 76.842-1.059.047.212.094.424.139.637zm-318.876-195.088c-.168.682-.326 1.368-.473 2.059l-41.108 193.029h119.457v-179.661c0-4.905-.542-9.683-1.57-14.278-8.96-40.066-66.47-41.008-76.306-1.149z" fill="#df9d28"/><path d="m262.391 424.795c13.528 23.971 8.3 48.42-5.982 65.116-32.384 4.548-64.441 2.756-94.789-4.516-16.565-14.617-32.968-31.3-48.64-49.78-61.883-72.965-94.293-152.595-86.411-201.633 49.666.23 122.936 45.207 184.82 118.173 20.299 23.935 37.427 48.586 51.002 72.64z" fill="#3d7a51"/><path d="m302 255h-92v-65h92z" fill="#e1b91e"/><path d="m246 225c0 57.99-47.01 105-105 105s-105-47.01-105-105 47.01-105 105-105 105 47.01 105 105zm125-105c-57.99 0-105 47.01-105 105s47.01 105 105 105 105-47.01 105-105-47.01-105-105-105z" fill="#e9cc5a"/><path d="m245.994 223.915c.174 17.192-3.785 33.443-10.943 47.821-2.527 5.076-7.734 8.264-13.404 8.264h-.026c-11.211 0-18.3-11.78-13.335-21.832 5.238-10.606 8.042-22.628 7.684-35.338-1.097-38.876-32.273-70.79-71.116-72.734-12.061-.603-23.537 1.644-33.813 6.127-9.929 4.331-21.041-2.873-21.041-13.705v-.039c0-5.894 3.429-11.296 8.826-13.666 13.201-5.797 27.823-8.955 43.199-8.809 56.88.544 103.395 47.031 103.969 103.911zm-155.994 56.076v.009h.01c-.004-.003-.007-.006-.01-.009zm282.025-159.986c-15.376-.147-29.998 3.012-43.199 8.809-5.397 2.37-8.826 7.772-8.826 13.666v.039c0 10.831 11.112 18.036 21.04 13.705 10.277-4.483 21.753-6.73 33.813-6.127 38.843 1.943 70.018 33.858 71.116 72.734.359 12.71-2.446 24.732-7.684 35.338-4.964 10.051 2.125 21.831 13.336 21.831h.026c5.67 0 10.877-3.188 13.404-8.264 7.159-14.378 11.117-30.629 10.943-47.821-.574-56.88-47.089-103.367-103.969-103.91zm-52.025 159.986v.009h.01c-.003-.003-.007-.006-.01-.009z" fill="#f1de96"/><path d="m216 225c0 41.421-33.579 75-75 75s-75-33.579-75-75 33.579-75 75-75 75 33.579 75 75zm155-75c-41.421 0-75 33.579-75 75s33.579 75 75 75 75-33.579 75-75-33.579-75-75-75z" fill="#07a9f0"/><path d="m216 225c0 13.128-3.373 25.468-9.299 36.201-10.733 5.926-23.073 9.299-36.201 9.299-41.421 0-75-33.579-75-75 0-13.128 3.373-25.468 9.299-36.201 10.733-5.926 23.073-9.299 36.201-9.299 41.421 0 75 33.579 75 75zm155-75c-13.128 0-25.468 3.373-36.201 9.299-5.926 10.733-9.299 23.073-9.299 36.201 0 41.421 33.579 75 75 75 13.128 0 25.468-3.373 36.201-9.299 5.926-10.733 9.299-23.073 9.299-36.201 0-41.421-33.579-75-75-75z" fill="#93dcfc"/><path d="m178.545 182.868c12.986 12.986 18.793 28.235 12.969 34.059s-21.073.018-34.059-12.969c-12.986-12.986-18.793-28.235-12.969-34.059s21.073-.017 34.059 12.969zm199.691-12.969c-5.824 5.824-.018 21.073 12.969 34.059 12.986 12.986 28.235 18.793 34.059 12.969s.018-21.073-12.969-34.059c-12.986-12.986-28.235-18.793-34.059-12.969z" fill="#b4e7fd"/><path d="m33.508 382.711c-2.643-14.004-3.26-26.891-1.708-38.208 49.659-.917 123.948 42.354 187.501 113.871 3.835 4.315 7.562 8.657 11.181 13.017 11.14 13.424-14.117 38.294-32.872 33.919-70.211-16.378-129.317-61.651-164.102-122.599z" fill="#80bf95"/><path d="m401.427 356.013c-1.751 27.564-6.617 57.168-14.298 87.598-11.122 44.056-86.803 62.283-129.912 62.283-2.914 0-5.817-.049-8.707-.146.956-31.13 4.59-59.24 13.693-94.443 7.857-30.384 18.128-58.59 29.959-83.548 27.083-57.133 113.274-34.845 109.265 28.256z" fill="#489160"/><path d="m337.586 279.535c28.972-22.999 71.51-46.737 98.733-17.44 11.323 12.185 20.505 22.677 24.754 28.678 34.868 49.248 53.374 97.684 50.667 132.602-49.519 3.839-126.226-34.985-193.879-102.637-3.989-3.989-7.239-8.572-11.024-12.617.013-.184 12.316-13.954 30.749-28.586z" fill="#b9e746"/><path d="m256 512c-20.37 0-61.533-22.503-62.378-30.56-7.946-75.704 6.466-142.569 33.638-171.261 32.536 22.425 60.517 84.841 68.463 160.545 1.357 12.929 2.061 25.599 2.162 37.866-13.63 2.243-27.621 3.41-41.885 3.41z" fill="#54a770"/><path d="m453.138 365.982c-22.121-14.138-61.74-48.817-106.039-93.634 6.962-4.988 14.439-9.736 22.119-13.665 39.694 42.238 71.612 80.942 86.68 104.535 1.152 1.804-.957 3.917-2.76 2.764z" fill="#84b017"/><path d="m179.876 285.395c20.915 40.81 49.79 124.337 77.341 226.602-.405.002-.811.003-1.217.003-20.088 0-39.635-2.314-58.39-6.689-41.914-65.354-74.246-122.596-90.507-159.886-1.721-3.947 3.183-7.455 6.361-4.549 19.314 17.663 45.915 47.465 76.63 85.831.856 1.07 2.572.271 2.307-1.073-11.253-57.144-18.284-105.521-20.078-138.186-.237-4.318 5.581-5.901 7.553-2.053z" fill="#b9e746"/><path d="m396.116 404.645c5.847 16.507 6.104 39.13 1.072 64.935-34.602 22.919-75.097 37.656-118.726 41.448 35.725-59.098 82.014-99.689 117.654-106.383z" fill="#80bf95"/></g></svg>