<svg id="Capa_1" enable-background="new 0 0 512 512" height="512" viewBox="0 0 512 512" width="512" xmlns="http://www.w3.org/2000/svg"><g><path d="m512 256c0 101.252-58.781 188.774-144.08 230.304-6.132 2.986-14.525-.802-20.92 1.696-28.861 11.276-335.5-90.615-335.5-232 0-15.606-10.104-30.887-7.429-45.722 21.558-119.569 126.15-210.278 251.929-210.278 141.385 0 256 114.615 256 256z" fill="#0a3575"/><path d="m482 244c0 113.771-92.229 206-206 206s-206-92.229-206-206 92.229-206 206-206 206 92.229 206 206z" fill="#0a4499"/><path d="m378.072 295.964c0 85.072-68.964 154.036-154.036 154.036s-154.036-68.964-154.036-154.036 68.964-154.036 154.036-154.036 154.036 68.964 154.036 154.036z" fill="#2476ed"/><path d="m0 256c0-15.606 1.397-30.886 4.072-45.722 2.075-.184 4.176-.278 6.298-.278 38.865 0 70.37 31.506 70.37 70.37 0 4.613-.444 9.123-1.292 13.489 8.599 1.114 16.85 3.337 24.605 6.52 12.123-21.202 34.958-35.49 61.131-35.49 38.865 0 70.37 31.506 70.37 70.37 0 6.051-.764 11.924-2.2 17.527 41.821 11.388 72.571 49.636 72.571 95.065 0 .47-.004.939-.01 1.407h.01c26.807 0 50.113 14.99 61.994 37.044-15.703 7.645-32.305 13.732-49.604 18.059-3.138.785-13.8-9.03-16.983-8.362-17.049 3.577-74.077 5.041-89 2.333-2.995-.543-8.306 8.406-11.264 7.759-114.986-25.138-201.068-127.562-201.068-250.091z" fill="#489160"/><path d="m153.77 490.772c-82.52-35.983-142.395-114.198-152.317-207.341 4.873 3.224 9.394 6.841 13.537 10.793 19.004-15.341 45.472-20.346 69.852-10.827 36.203 14.134 54.093 54.941 39.959 91.144-2.201 5.637-5.048 10.83-8.424 15.527 30.945 22.948 46.025 62.482 37.393 100.704z" fill="#54a770"/><path d="m432.216 115.239c3.9-2.872 9.176.865 7.761 5.497-21.385 70.008-106.964 213.716-148.106 271.8-2.744 3.873-5.334 7.428-7.793 10.698-31.708 42.162-95.881-3.293-66.628-47.194 2.268-3.404 4.763-7.027 7.506-10.901 41.143-58.084 148.315-186.498 207.26-229.9z" fill="#c50048"/><path d="m230.209 319.735c-21.831 1.305-40.248-16.116-40.095-37.985.551-78.577 6.07-177.551 19.449-227.811 1.236-4.643 7.712-5.03 9.492-.567 19.269 48.309 36.535 145.921 46.44 223.873 2.756 21.696-13.455 41.185-35.286 42.49z" fill="#df9d28"/><path d="m251.245 3.448c1.523-4.598 7.988-4.598 9.511 0 23.014 69.489 36.244 236.225 36.244 307.404 0 4.747-.059 9.145-.175 13.234-1.504 52.733-80.145 52.733-81.649 0-.117-4.089-.175-8.487-.175-13.234-.001-71.179 13.229-237.915 36.244-307.404z" fill="#eac23f"/><path d="m256 270c-21.87 0-39.215-18.488-37.758-40.309 5.237-78.404 16.65-176.873 33.003-226.245 1.511-4.561 7.998-4.561 9.509 0 16.353 49.372 27.766 147.841 33.003 226.245 1.458 21.821-15.887 40.309-37.757 40.309z" fill="#fff36c"/><path d="m492.686 127.834c4.313-2.203 8.915 2.338 6.769 6.68-32.429 65.625-140.132 193.595-190.129 244.257-3.334 3.378-6.465 6.468-9.421 9.296-38.111 36.477-94.085-18.762-58.115-57.352 2.789-2.992 5.837-6.164 9.171-9.543 49.999-50.661 176.534-160.044 241.725-193.338z" fill="#ff3c7d"/><path d="m308.84 320.896c-15.566-15.362-14.926-40.704 1.44-55.212 58.8-52.126 136.09-114.196 182.409-137.85 4.279-2.185 8.897 2.372 6.768 6.679-23.041 46.628-84.084 124.731-135.429 184.215-14.29 16.554-39.622 17.53-55.188 2.168z" fill="#ff5e93"/><path d="m256.579 412.657c-2.285-16.013 9.44-30.644 25.57-31.856 57.953-4.356 131.243-6.285 169.101.53 3.497.63 4.175 5.38.993 6.962-34.441 17.131-105.346 35.773-162.205 47.799-15.826 3.346-31.175-7.422-33.459-23.435z" fill="#2476ed"/><path d="m468.415 280.441c3.514-.697 5.872 3.462 3.469 6.119-36.314 40.155-138.764 109.486-184.56 135.45-3.054 1.731-5.905 3.298-8.579 4.714-34.477 18.267-63.162-32.329-29.783-52.532 2.588-1.567 5.397-3.209 8.451-4.94 45.797-25.964 157.899-78.271 211.002-88.811z" fill="#07a9f0"/><path d="m298.653 380.73c-7.978-14.071-2.409-31.974 12.162-38.996 52.355-25.229 119.872-53.804 157.603-61.292 3.486-.692 5.852 3.482 3.469 6.118-25.801 28.53-84.992 71.791-133.526 103.76-13.509 8.897-31.731 4.481-39.708-9.59z" fill="#72d1fb"/><path d="m318.316 504.362c-19.948 4.989-40.822 7.638-62.316 7.638-18.856 0-37.235-2.039-54.93-5.908-5.725-20.055-12.061-42.365-18.745-66.092-48.143-170.909-114.335-415.341-100.45-419.935 6.589-2.18 22.419 50.664 75.674 158.628 46.084 93.424 100.617 188.438 134.678 261.307 11.303 24.182 20.352 45.925 26.089 64.362z" fill="#9bcf1b"/><path d="m256 512c-11.485 0-22.793-.757-33.878-2.222-31.767-111.192-83.349-295.345-108.057-403.357-1.164-5.089 6.011-7.504 8.15-2.742 9.446 21.036 21.042 46.04 35.334 75.014 61.376 124.428 137.741 251.676 160.767 325.669-19.948 4.989-40.822 7.638-62.316 7.638z" fill="#b9e746"/></g></svg>